<svg width="121" height="41" viewBox="0 0 121 41" fill="none" xmlns="http://www.w3.org/2000/svg">
<path d="M1 13.6453C1 11.3969 1.00039 9.7406 1.10733 8.43167C1.2138 7.12857 1.42338 6.21382 1.81745 5.44041C2.5365 4.02919 3.68386 2.88184 5.09507 2.16279C5.86848 1.76871 6.78324 1.55914 8.08633 1.45267C9.39526 1.34573 11.0515 1.34534 13.3 1.34534H107.7C109.948 1.34534 111.605 1.34573 112.914 1.45267C114.217 1.55914 115.132 1.76871 115.905 2.16279C117.316 2.88184 118.464 4.02919 119.183 5.44041C119.577 6.21382 119.786 7.12857 119.893 8.43167C120 9.7406 120 11.3969 120 13.6453V28.0453C120 30.2938 120 31.9501 119.893 33.259C119.786 34.5621 119.577 35.4769 119.183 36.2503C118.464 37.6615 117.316 38.8088 115.905 39.5279C115.132 39.922 114.217 40.1315 112.914 40.238C111.605 40.3449 109.948 40.3453 107.7 40.3453H13.3C11.0515 40.3453 9.39527 40.3449 8.08633 40.238C6.78324 40.1315 5.86848 39.922 5.09507 39.5279C3.68386 38.8088 2.5365 37.6615 1.81745 36.2503C1.42338 35.4769 1.2138 34.5621 1.10733 33.259C1.00039 31.9501 1 30.2938 1 28.0453V13.6453Z" stroke="#BFC8D1"/>
<path d="M8.96856 39.9703C8.66303 39.9703 8.36487 39.9664 8.06174 39.9596C7.43376 39.9515 6.80725 39.897 6.18735 39.7965C5.60932 39.6973 5.04937 39.5126 4.52596 39.2486C4.00735 38.9869 3.53433 38.6436 3.12504 38.232C2.70981 37.8253 2.36412 37.3536 2.10166 36.8355C1.83631 36.3141 1.65267 35.7552 1.55714 35.1783C1.45397 34.5585 1.39816 33.9317 1.39017 33.3033C1.38381 33.0924 1.37549 32.3902 1.37549 32.3902V9.28968C1.37549 9.28968 1.38435 8.59827 1.39022 8.39514C1.39787 7.76782 1.45336 7.14199 1.55621 6.52307C1.65192 5.94459 1.8357 5.38409 2.1012 4.86097C2.3627 4.34328 2.70647 3.8712 3.11919 3.46302C3.53145 3.05096 4.00597 2.70594 4.52547 2.44055C5.04767 2.17743 5.60657 1.99407 6.18343 1.89661C6.80537 1.79517 7.43405 1.74033 8.0642 1.73255L8.96906 1.72034H112.026L112.942 1.73304C113.566 1.74044 114.189 1.79479 114.805 1.89563C115.388 1.99431 115.953 2.17895 116.481 2.44348C117.522 2.97832 118.369 3.8245 118.903 4.86341C119.164 5.38291 119.345 5.93884 119.439 6.51233C119.544 7.13633 119.602 7.76708 119.614 8.39954C119.617 8.68274 119.617 8.98694 119.617 9.28968C119.625 9.66468 119.625 10.0216 119.625 10.3815V31.3101C119.625 31.6734 119.625 32.0279 119.617 32.3853C119.617 32.7105 119.617 33.0084 119.613 33.315C119.601 33.9362 119.544 34.5557 119.441 35.1685C119.348 35.7496 119.165 36.3128 118.9 36.8385C118.636 37.351 118.292 37.8186 117.881 38.2242C117.472 38.638 116.998 38.9833 116.478 39.2467C115.951 39.5127 115.387 39.6981 114.805 39.7965C114.186 39.8975 113.559 39.952 112.931 39.9596C112.637 39.9664 112.33 39.9703 112.031 39.9703L110.944 39.9723L8.96856 39.9703Z" fill="black"/>
<path d="M26.1331 21.1459C26.1438 20.3112 26.3656 19.4929 26.7777 18.7669C27.1898 18.041 27.7789 17.431 28.4901 16.9939C28.0383 16.3487 27.4422 15.8177 26.7492 15.4432C26.0563 15.0686 25.2855 14.8608 24.4982 14.8362C22.8186 14.6599 21.1903 15.841 20.3344 15.841C19.462 15.841 18.1443 14.8537 16.7252 14.8829C15.8074 14.9125 14.9129 15.1794 14.1288 15.6574C13.3448 16.1355 12.698 16.8084 12.2515 17.6107C10.3171 20.9591 11.76 25.8802 13.6129 28.5868C14.54 29.9122 15.6235 31.3926 17.0412 31.3401C18.4285 31.2826 18.9467 30.4556 20.6213 30.4556C22.2804 30.4556 22.7665 31.3401 24.213 31.3067C25.7017 31.2826 26.6396 29.9755 27.5342 28.6376C28.2003 27.6932 28.7128 26.6495 29.0529 25.5451C28.188 25.1794 27.4499 24.5672 26.9307 23.7849C26.4115 23.0026 26.1341 22.0848 26.1331 21.1459Z" fill="white"/>
<path d="M23.401 13.0562C24.2127 12.082 24.6126 10.8298 24.5157 9.56555C23.2757 9.69577 22.1302 10.2883 21.3075 11.2252C20.9053 11.6828 20.5973 12.2153 20.401 12.792C20.2047 13.3688 20.124 13.9786 20.1636 14.5866C20.7839 14.5929 21.3975 14.4585 21.9583 14.1934C22.519 13.9283 23.0123 13.5395 23.401 13.0562Z" fill="white"/>
<path d="M42.921 27.9849H38.1743L37.0344 31.3413H35.0239L39.5199 18.9233H41.6088L46.1047 31.3413H44.06L42.921 27.9849ZM38.666 26.4361H42.4285L40.5737 20.9888H40.5218L38.666 26.4361Z" fill="white"/>
<path d="M55.8145 26.815C55.8145 29.6285 54.3044 31.4361 52.0256 31.4361C51.4483 31.4662 50.8742 31.3336 50.369 31.0535C49.8638 30.7734 49.4479 30.357 49.1689 29.8521H49.1258V34.3365H47.2622V22.2877H49.0661V23.7935H49.1004C49.3922 23.2911 49.8151 22.8769 50.3241 22.595C50.8332 22.3132 51.4093 22.1742 51.9913 22.193C54.2956 22.193 55.8145 24.0094 55.8145 26.815ZM53.899 26.815C53.899 24.982 52.949 23.7769 51.4997 23.7769C50.0758 23.7769 49.118 25.0074 49.118 26.815C49.118 28.6393 50.0758 29.8609 51.4997 29.8609C52.9491 29.8609 53.899 28.6646 53.899 26.815Z" fill="white"/>
<path d="M65.8074 26.815C65.8074 29.6285 64.2973 31.4361 62.0185 31.4361C61.4412 31.4662 60.8671 31.3336 60.3619 31.0535C59.8567 30.7733 59.4408 30.357 59.1619 29.8521H59.1187V34.3365H57.2551V22.2877H59.059V23.7935H59.0933C59.385 23.2911 59.808 22.8769 60.317 22.595C60.8261 22.3132 61.4022 22.1742 61.9842 22.193C64.2885 22.193 65.8074 24.0094 65.8074 26.815ZM63.8919 26.815C63.8919 24.982 62.942 23.7769 61.4926 23.7769C60.0687 23.7769 59.1109 25.0074 59.1109 26.815C59.1109 28.6392 60.0687 29.8609 61.4926 29.8609C62.942 29.8609 63.8919 28.6646 63.8919 26.815H63.8919Z" fill="white"/>
<path d="M72.4117 27.8814C72.5498 29.1128 73.7495 29.9214 75.3888 29.9214C76.9596 29.9214 78.0897 29.1128 78.0897 28.0024C78.0897 27.0386 77.4081 26.4614 75.7943 26.0659L74.1804 25.6782C71.8937 25.1274 70.8321 24.061 70.8321 22.3306C70.8321 20.188 72.7046 18.7163 75.3634 18.7163C77.9947 18.7163 79.7986 20.188 79.8593 22.3306H77.9781C77.8655 21.0913 76.8382 20.3433 75.3369 20.3433C73.8356 20.3433 72.8083 21.1001 72.8083 22.2017C72.8083 23.0796 73.4645 23.5962 75.0696 23.9917L76.4415 24.3276C78.9966 24.9301 80.0581 25.9536 80.0581 27.77C80.0581 30.0932 78.2023 31.5483 75.2507 31.5483C72.4891 31.5483 70.6245 30.1274 70.504 27.8813L72.4117 27.8814Z" fill="white"/>
<path d="M84.0802 20.145V22.2876H85.8067V23.7593H84.0802V28.7505C84.0802 29.5259 84.4259 29.8872 85.1849 29.8872C85.3898 29.8836 85.5945 29.8693 85.7979 29.8442V31.3071C85.4567 31.3707 85.1099 31.3995 84.7628 31.393C82.9246 31.393 82.2078 30.7046 82.2078 28.9487V23.7593H80.8877V22.2876H82.2078V20.145H84.0802Z" fill="white"/>
<path d="M86.8066 26.8149C86.8066 23.9663 88.4891 22.1763 91.1126 22.1763C93.745 22.1763 95.4196 23.9663 95.4196 26.8149C95.4196 29.6714 93.7538 31.4536 91.1126 31.4536C88.4724 31.4536 86.8066 29.6714 86.8066 26.8149ZM93.5207 26.8149C93.5207 24.8608 92.6227 23.7075 91.1126 23.7075C89.6025 23.7075 88.7055 24.8696 88.7055 26.8149C88.7055 28.7768 89.6025 29.9214 91.1126 29.9214C92.6227 29.9214 93.5207 28.7768 93.5207 26.8149H93.5207Z" fill="white"/>
<path d="M96.9561 22.2876H98.7335V23.8286H98.7766C98.8969 23.3473 99.1796 22.922 99.5773 22.6241C99.975 22.3262 100.463 22.1739 100.96 22.1929C101.175 22.1921 101.389 22.2154 101.599 22.2622V24.0005C101.328 23.9179 101.045 23.8799 100.762 23.8882C100.491 23.8772 100.221 23.9248 99.9704 24.0277C99.7199 24.1306 99.4946 24.2863 99.3102 24.4842C99.1257 24.6821 98.9863 24.9175 98.9016 25.1741C98.817 25.4308 98.789 25.7027 98.8197 25.9712V31.3413H96.9561L96.9561 22.2876Z" fill="white"/>
<path d="M110.191 28.6821C109.941 30.3257 108.336 31.4536 106.282 31.4536C103.641 31.4536 102.001 29.689 102.001 26.8579C102.001 24.0181 103.65 22.1763 106.204 22.1763C108.716 22.1763 110.295 23.897 110.295 26.6421V27.2788H103.883V27.3911C103.853 27.7243 103.895 28.06 104.005 28.3758C104.116 28.6917 104.293 28.9804 104.524 29.223C104.755 29.4655 105.035 29.6563 105.345 29.7826C105.656 29.9089 105.99 29.9679 106.325 29.9556C106.765 29.9967 107.207 29.895 107.585 29.6656C107.963 29.4361 108.256 29.0912 108.422 28.6821L110.191 28.6821ZM103.892 25.98H108.431C108.447 25.6804 108.402 25.3806 108.297 25.0994C108.192 24.8182 108.03 24.5616 107.821 24.3458C107.611 24.1301 107.36 23.9597 107.082 23.8455C106.803 23.7313 106.504 23.6757 106.204 23.6821C105.9 23.6803 105.599 23.7385 105.319 23.8532C105.038 23.968 104.782 24.137 104.567 24.3507C104.353 24.5643 104.182 24.8183 104.066 25.0979C103.95 25.3776 103.891 25.6774 103.892 25.98V25.98Z" fill="white"/>
<path d="M38.4324 9.57635C38.8231 9.54839 39.2152 9.60725 39.5803 9.74868C39.9455 9.89012 40.2746 10.1106 40.5439 10.3942C40.8133 10.6778 41.0161 11.0175 41.1379 11.3888C41.2596 11.7601 41.2972 12.1537 41.2479 12.5412C41.2479 14.4474 40.2148 15.5432 38.4324 15.5432H36.2711V9.57635H38.4324ZM37.2005 14.6994H38.3286C38.6078 14.716 38.8872 14.6703 39.1465 14.5657C39.4057 14.4611 39.6384 14.3002 39.8274 14.0946C40.0164 13.889 40.1571 13.644 40.2392 13.3774C40.3213 13.1108 40.3427 12.8293 40.3019 12.5534C40.3397 12.2785 40.3161 11.9987 40.2328 11.7341C40.1494 11.4694 40.0084 11.2264 39.8198 11.0225C39.6312 10.8186 39.3997 10.6587 39.1419 10.5545C38.8841 10.4503 38.6064 10.4042 38.3286 10.4196H37.2005V14.6994Z" fill="white"/>
<path d="M42.2978 13.2897C42.2694 12.9938 42.3034 12.6953 42.3975 12.4132C42.4916 12.1311 42.6437 11.8718 42.8442 11.6518C43.0447 11.4318 43.2891 11.2561 43.5618 11.1358C43.8344 11.0155 44.1292 10.9534 44.4273 10.9534C44.7254 10.9534 45.0202 11.0155 45.2928 11.1358C45.5654 11.2561 45.8098 11.4318 46.0103 11.6518C46.2108 11.8718 46.363 12.1311 46.4571 12.4132C46.5512 12.6953 46.5852 12.9938 46.5568 13.2897C46.5857 13.586 46.5522 13.885 46.4583 14.1675C46.3645 14.45 46.2124 14.7098 46.0118 14.9302C45.8113 15.1506 45.5667 15.3268 45.2938 15.4473C45.0209 15.5679 44.7257 15.6301 44.4273 15.6301C44.1288 15.6301 43.8337 15.5679 43.5608 15.4473C43.2879 15.3268 43.0433 15.1506 42.8428 14.9302C42.6422 14.7098 42.4901 14.45 42.3963 14.1675C42.3024 13.885 42.2689 13.586 42.2978 13.2897ZM45.6401 13.2897C45.6401 12.3137 45.2004 11.7429 44.4288 11.7429C43.6541 11.7429 43.2184 12.3137 43.2184 13.2898C43.2184 14.2736 43.6542 14.84 44.4288 14.84C45.2005 14.84 45.6402 14.2697 45.6402 13.2897H45.6401Z" fill="white"/>
<path d="M52.2181 15.5431H51.2937L50.3604 12.2267H50.2899L49.3605 15.5431H48.4449L47.2002 11.0402H48.1041L48.913 14.4762H48.9796L49.908 11.0402H50.7629L51.6913 14.4762H51.7618L52.5668 11.0402H53.4579L52.2181 15.5431Z" fill="white"/>
<path d="M54.5048 11.0402H55.3626V11.7555H55.4292C55.5422 11.4986 55.7327 11.2832 55.9743 11.1394C56.2158 10.9956 56.4964 10.9306 56.7768 10.9533C56.9965 10.9368 57.2171 10.9698 57.4223 11.0499C57.6274 11.13 57.8119 11.2551 57.962 11.416C58.1121 11.5768 58.224 11.7693 58.2894 11.9791C58.3548 12.1889 58.372 12.4107 58.3397 12.6281V15.5431H57.4486V12.8512C57.4486 12.1276 57.1332 11.7677 56.4741 11.7677C56.325 11.7608 56.1761 11.7861 56.0376 11.842C55.8992 11.8978 55.7745 11.9828 55.6721 12.0912C55.5696 12.1996 55.4919 12.3288 55.4443 12.4699C55.3966 12.611 55.3801 12.7608 55.3959 12.9089V15.5431H54.5048L54.5048 11.0402Z" fill="white"/>
<path d="M59.7598 9.28235H60.6509V15.5431H59.7598V9.28235Z" fill="white"/>
<path d="M61.8897 13.2897C61.8613 12.9938 61.8953 12.6952 61.9894 12.4131C62.0835 12.131 62.2357 11.8717 62.4363 11.6517C62.6368 11.4317 62.8812 11.2559 63.1538 11.1357C63.4265 11.0154 63.7213 10.9532 64.0194 10.9532C64.3176 10.9532 64.6124 11.0154 64.885 11.1357C65.1577 11.2559 65.4021 11.4317 65.6026 11.6517C65.8031 11.8717 65.9553 12.131 66.0494 12.4131C66.1436 12.6952 66.1775 12.9938 66.1492 13.2897C66.1781 13.5859 66.1445 13.8849 66.0506 14.1675C65.9567 14.45 65.8046 14.7098 65.604 14.9302C65.4035 15.1506 65.1589 15.3267 64.886 15.4473C64.6131 15.5678 64.3179 15.6301 64.0194 15.6301C63.721 15.6301 63.4258 15.5678 63.1529 15.4473C62.88 15.3267 62.6354 15.1506 62.4348 14.9302C62.2343 14.7098 62.0821 14.45 61.9883 14.1675C61.8944 13.8849 61.8608 13.5859 61.8897 13.2897ZM65.232 13.2897C65.232 12.3136 64.7923 11.7428 64.0207 11.7428C63.246 11.7428 62.8103 12.3136 62.8103 13.2897C62.8103 14.2736 63.2461 14.84 64.0207 14.84C64.7923 14.84 65.2321 14.2697 65.2321 13.2897H65.232Z" fill="white"/>
<path d="M67.0874 14.2696C67.0874 13.4591 67.6926 12.9918 68.7669 12.9254L69.9901 12.8551V12.4664C69.9901 11.9908 69.6747 11.7223 69.0656 11.7223C68.5681 11.7223 68.2234 11.9044 68.1245 12.2228H67.2617C67.3528 11.4493 68.0824 10.9532 69.1067 10.9532C70.2388 10.9532 70.8773 11.5152 70.8773 12.4664V15.5431H70.0194V14.9103H69.9489C69.8058 15.1373 69.6048 15.3223 69.3666 15.4465C69.1283 15.5707 68.8612 15.6297 68.5926 15.6173C68.403 15.6369 68.2114 15.6168 68.0302 15.5581C67.8489 15.4994 67.682 15.4034 67.5402 15.2765C67.3983 15.1495 67.2848 14.9943 67.2068 14.8209C67.1288 14.6475 67.0881 14.4597 67.0874 14.2696ZM69.9901 13.8849V13.5084L68.8874 13.5787C68.2655 13.6202 67.9835 13.8312 67.9835 14.2281C67.9835 14.6334 68.336 14.8692 68.8208 14.8692C68.9628 14.8836 69.1063 14.8693 69.2427 14.8272C69.3791 14.7851 69.5056 14.7161 69.6147 14.6242C69.7238 14.5324 69.8132 14.4196 69.8777 14.2926C69.9422 14.1656 69.9804 14.0269 69.9901 13.8849Z" fill="white"/>
<path d="M72.0485 13.2897C72.0485 11.8668 72.782 10.9655 73.9228 10.9655C74.2051 10.9525 74.4851 11.0199 74.7303 11.1598C74.9756 11.2997 75.1758 11.5063 75.3076 11.7555H75.3742V9.28235H76.2653V15.5431H75.4114V14.8317H75.3409C75.1989 15.0791 74.9917 15.2832 74.7417 15.4217C74.4918 15.5601 74.2086 15.6278 73.9229 15.6173C72.7741 15.6173 72.0485 14.716 72.0485 13.2897ZM72.969 13.2897C72.969 14.2448 73.4205 14.8195 74.1755 14.8195C74.9267 14.8195 75.3909 14.2365 75.3909 13.2936C75.3909 12.3551 74.9218 11.7638 74.1755 11.7638C73.4254 11.7638 72.969 12.3424 72.969 13.2897H72.969Z" fill="white"/>
<path d="M79.9525 13.2897C79.9241 12.9938 79.958 12.6953 80.0521 12.4132C80.1462 12.1311 80.2984 11.8718 80.4989 11.6518C80.6994 11.4318 80.9438 11.2561 81.2164 11.1358C81.489 11.0155 81.7838 10.9534 82.082 10.9534C82.3801 10.9534 82.6749 11.0155 82.9475 11.1358C83.2201 11.2561 83.4645 11.4318 83.665 11.6518C83.8655 11.8718 84.0177 12.1311 84.1118 12.4132C84.2059 12.6953 84.2398 12.9938 84.2114 13.2897C84.2404 13.586 84.2068 13.885 84.113 14.1675C84.0191 14.45 83.867 14.7098 83.6665 14.9302C83.4659 15.1506 83.2213 15.3268 82.9485 15.4473C82.6756 15.5679 82.3804 15.6301 82.082 15.6301C81.7835 15.6301 81.4883 15.5679 81.2154 15.4473C80.9426 15.3268 80.698 15.1506 80.4974 14.9302C80.2969 14.7098 80.1448 14.45 80.0509 14.1675C79.9571 13.885 79.9235 13.586 79.9525 13.2897ZM83.2948 13.2897C83.2948 12.3137 82.8551 11.7429 82.0834 11.7429C81.3088 11.7429 80.873 12.3137 80.873 13.2898C80.873 14.2736 81.3088 14.84 82.0834 14.84C82.8551 14.84 83.2948 14.2697 83.2948 13.2897Z" fill="white"/>
<path d="M85.4072 11.0402H86.2651V11.7555H86.3317C86.4447 11.4986 86.6352 11.2832 86.8767 11.1394C87.1183 10.9956 87.3988 10.9306 87.6792 10.9533C87.8989 10.9368 88.1195 10.9698 88.3247 11.0499C88.5299 11.13 88.7144 11.2551 88.8645 11.416C89.0146 11.5768 89.1265 11.7693 89.1918 11.9791C89.2572 12.1889 89.2744 12.4107 89.2422 12.6281V15.5431H88.351V12.8512C88.351 12.1276 88.0357 11.7677 87.3766 11.7677C87.2274 11.7608 87.0785 11.7861 86.9401 11.842C86.8016 11.8978 86.6769 11.9828 86.5745 12.0912C86.4721 12.1996 86.3944 12.3288 86.3467 12.4699C86.2991 12.611 86.2826 12.7608 86.2984 12.9089V15.5431H85.4072V11.0402Z" fill="white"/>
<path d="M94.2777 9.91907V11.0607H95.256V11.8092H94.2777V14.1246C94.2777 14.5963 94.4726 14.8029 94.9162 14.8029C95.0298 14.8025 95.1432 14.7956 95.256 14.7823V15.5226C95.096 15.5511 94.9338 15.5663 94.7713 15.568C93.7802 15.568 93.3856 15.2203 93.3856 14.3522V11.8092H92.6687V11.0606H93.3856V9.91907H94.2777Z" fill="white"/>
<path d="M96.4734 9.28235H97.3567V11.7638H97.4272C97.5457 11.5045 97.7415 11.2879 97.9878 11.1435C98.2342 10.9992 98.5193 10.9341 98.8041 10.9572C99.0227 10.9453 99.2412 10.9817 99.444 11.0637C99.6468 11.1458 99.829 11.2714 99.9776 11.4318C100.126 11.5921 100.237 11.7832 100.303 11.9913C100.369 12.1994 100.388 12.4195 100.359 12.6359V15.5431H99.4672V12.8551C99.4672 12.1359 99.1312 11.7716 98.5016 11.7716C98.3484 11.7591 98.1943 11.7801 98.0502 11.8331C97.906 11.8862 97.7752 11.97 97.6669 12.0787C97.5586 12.1875 97.4754 12.3185 97.4232 12.4626C97.371 12.6068 97.351 12.7605 97.3646 12.9132V15.5431H96.4734L96.4734 9.28235Z" fill="white"/>
<path d="M105.555 14.3272C105.434 14.7388 105.172 15.0947 104.814 15.3329C104.457 15.571 104.026 15.6762 103.599 15.63C103.301 15.6378 103.006 15.581 102.732 15.4634C102.459 15.3459 102.215 15.1705 102.016 14.9493C101.818 14.7282 101.67 14.4667 101.583 14.1828C101.496 13.899 101.472 13.5997 101.513 13.3057C101.473 13.0109 101.498 12.7109 101.584 12.4263C101.671 12.1416 101.818 11.8788 102.015 11.6557C102.213 11.4327 102.456 11.2545 102.729 11.1333C103.001 11.0121 103.296 10.9507 103.595 10.9532C104.851 10.9532 105.609 11.8092 105.609 13.2232V13.5333H102.421V13.5831C102.407 13.7483 102.427 13.9147 102.482 14.0714C102.536 14.2282 102.623 14.3719 102.736 14.4933C102.849 14.6148 102.986 14.7113 103.139 14.7767C103.292 14.8421 103.457 14.8749 103.623 14.8731C103.836 14.8986 104.052 14.8603 104.244 14.7631C104.435 14.6659 104.593 14.5142 104.697 14.3272L105.555 14.3272ZM102.421 12.8761H104.701C104.713 12.7249 104.692 12.5731 104.641 12.4304C104.59 12.2877 104.509 12.1572 104.405 12.0473C104.3 11.9375 104.173 11.8507 104.033 11.7925C103.893 11.7343 103.742 11.7061 103.59 11.7096C103.436 11.7076 103.283 11.7365 103.14 11.7944C102.997 11.8524 102.868 11.9382 102.759 12.0469C102.65 12.1557 102.564 12.285 102.506 12.4274C102.447 12.5698 102.419 12.7224 102.421 12.8761H102.421Z" fill="white"/>
</svg>
